<svg width="54" height="54" viewBox="0 0 54 54" fill="none" xmlns="http://www.w3.org/2000/svg">
<path d="M49.2248 11.383C49.1879 11.2559 49.1176 11.141 49.0211 11.0505C48.9246 10.9599 48.8055 10.897 48.6763 10.8683L44.1517 9.84611L43.1295 5.3215C43.1005 5.19265 43.0374 5.07396 42.9468 4.97782C42.8562 4.88168 42.7415 4.81161 42.6146 4.77493C42.4877 4.73825 42.3533 4.73631 42.2254 4.7693C42.0975 4.80229 41.9808 4.869 41.8875 4.96248L36.6837 10.1672C32.2801 7.50994 27.0563 6.55642 21.9979 7.48654C16.9396 8.41666 12.3966 11.1661 9.22633 15.216C6.05607 19.2659 4.4778 24.3361 4.78936 29.4698C5.10093 34.6035 7.28078 39.4456 10.9175 43.0824C14.5543 46.7192 19.3964 48.899 24.5302 49.2106C29.6639 49.5221 34.7341 47.9439 38.784 44.7736C42.8338 41.6034 45.5833 37.0604 46.5134 32.002C47.4435 26.9437 46.49 21.7198 43.8328 17.3163L49.0387 12.1103C49.1319 12.0168 49.1983 11.9 49.231 11.7721C49.2637 11.6441 49.2616 11.5098 49.2248 11.383ZM45.3832 28.1968C45.3826 32.507 43.9596 36.6965 41.3351 40.1154C38.7105 43.5343 35.031 45.9916 30.8674 47.106C26.7038 48.2204 22.2889 47.9296 18.3074 46.2788C14.3259 44.628 11.0004 41.7094 8.84692 37.9758C6.6934 34.2422 5.83218 29.9023 6.39685 25.6293C6.96152 21.3563 8.92052 17.3891 11.97 14.343C15.0194 11.297 18.9888 9.34239 23.2624 8.78249C27.5361 8.22258 31.875 9.08864 35.6062 11.2463L33.2163 13.6362C33.1958 13.6596 33.1767 13.6843 33.1593 13.7101C29.7085 11.9532 25.7442 11.4848 21.9789 12.3891C18.2136 13.2934 14.8944 15.511 12.6177 18.6434C10.3411 21.7757 9.25633 25.6175 9.5585 29.478C9.86067 33.3385 11.5299 36.9647 14.2662 39.7047C17.0025 42.4447 20.6264 44.1189 24.4865 44.4263C28.3466 44.7337 32.1898 43.6542 35.3253 41.3818C38.4607 39.1095 40.6829 35.7932 41.5923 32.0292C42.5017 28.2651 42.0387 24.3002 40.2865 20.8469C40.3136 20.8278 40.3394 20.8068 40.3637 20.7841L42.7536 18.3941C44.4795 21.3725 45.3867 24.7545 45.3832 28.1968ZM38.5345 20.7237C40.3475 23.8189 40.9706 27.4687 40.287 30.99C39.6034 34.5114 37.66 37.6629 34.8206 39.8549C31.9811 42.0469 28.4402 43.129 24.8605 42.8987C21.2808 42.6685 17.9077 41.1416 15.3725 38.6039C12.8372 36.0663 11.3136 32.6917 11.0868 29.1118C10.86 25.5319 11.9455 21.992 14.1402 19.1546C16.3349 16.3173 19.4883 14.3769 23.0103 13.6967C26.5324 13.0165 30.1815 13.6431 33.2749 15.4592L34.0525 18.9033L33.3066 19.6492C31.0823 17.696 28.1856 16.6843 25.2289 16.8281C22.2723 16.9719 19.4874 18.2599 17.4631 20.4198C15.4389 22.5796 14.3339 25.442 14.3819 28.4018C14.4298 31.3616 15.6269 34.1867 17.7201 36.2799C19.8132 38.373 22.6384 39.5701 25.5981 39.618C28.5579 39.666 31.4203 38.561 33.5802 36.5368C35.74 34.5125 37.028 31.7277 37.1718 28.771C37.3156 25.8144 36.3039 22.9177 34.3507 20.6934L35.0966 19.9475L38.5345 20.7237ZM28.9777 28.1968C28.9803 28.9026 28.7486 29.5892 28.3188 30.149C27.889 30.7088 27.2855 31.1101 26.603 31.2899C25.9206 31.4697 25.1977 31.4178 24.5479 31.1424C23.8981 30.867 23.3581 30.3837 23.0127 29.7682C22.6672 29.1528 22.5359 28.4401 22.6393 27.7419C22.7426 27.0438 23.0749 26.3997 23.5838 25.9107C24.0928 25.4218 24.7496 25.1157 25.4514 25.0404C26.1531 24.9651 26.86 25.1249 27.4611 25.4947L25.2808 27.675C25.2103 27.7431 25.1541 27.8246 25.1154 27.9146C25.0768 28.0047 25.0564 28.1016 25.0556 28.1996C25.0547 28.2977 25.0734 28.3949 25.1106 28.4856C25.1477 28.5763 25.2026 28.6587 25.2719 28.7281C25.3412 28.7974 25.4237 28.8522 25.5144 28.8893C25.6052 28.9264 25.7024 28.945 25.8004 28.9442C25.8984 28.9433 25.9953 28.9229 26.0854 28.8842C26.1754 28.8455 26.2569 28.7892 26.325 28.7187L28.5052 26.5384C28.8139 27.0365 28.9775 27.6108 28.9777 28.1968ZM28.5238 24.432C27.5726 23.743 26.3967 23.4377 25.2305 23.577C24.0643 23.7163 22.9933 24.2898 22.2311 25.1834C21.4689 26.077 21.0713 27.225 21.1177 28.3985C21.164 29.5721 21.6509 30.6852 22.4812 31.5158C23.3116 32.3465 24.4244 32.8338 25.598 32.8807C26.7716 32.9275 27.9197 32.5304 28.8136 31.7685C29.7075 31.0067 30.2815 29.936 30.4212 28.7698C30.5609 27.6036 30.2561 26.4276 29.5675 25.4762L33.3045 21.7392C34.9789 23.6845 35.834 26.2031 35.6902 28.7657C35.5463 31.3283 34.4147 33.7354 32.5332 35.4811C30.6516 37.2268 28.1666 38.1751 25.6004 38.1268C23.0342 38.0785 20.5866 37.0373 18.7721 35.222C16.9575 33.4067 15.9173 30.9588 15.87 28.3925C15.8228 25.8263 16.7721 23.3417 18.5185 21.4608C20.265 19.5799 22.6725 18.4493 25.2352 18.3065C27.7979 18.1637 30.3162 19.0199 32.2608 20.695L28.5238 24.432ZM42.3798 16.6796L39.609 19.4501L39.1934 19.3564L39.1774 19.3526L35.4797 18.5203L34.5477 14.3931L41.9862 6.95331L42.8161 10.6262C42.8468 10.7623 42.9156 10.887 43.0143 10.9857C43.113 11.0844 43.2376 11.1531 43.3738 11.1839L47.0466 12.0137L42.3798 16.6796Z" fill="white"/>
</svg>
