<svg width="54" height="54" viewBox="0 0 54 54" fill="none" xmlns="http://www.w3.org/2000/svg">
<g clip-path="url(#clip0)">
<path d="M27.1122 9.43982C17.4298 9.43982 9.55215 17.317 9.55215 26.9999C9.55215 36.6823 17.4298 44.56 27.1122 44.56C36.7951 44.56 44.6723 36.6823 44.6723 26.9999C44.6723 17.317 36.7951 9.43982 27.1122 9.43982ZM18.2742 39.8499V33.6946C18.279 31.8006 19.693 30.2058 21.5726 29.9742C24.0569 32.8694 28.3522 33.3618 31.4267 31.1039C31.8765 30.775 32.2869 30.3962 32.6504 29.9742C34.531 30.2058 35.945 31.8001 35.9503 33.6946V39.8499C33.3725 41.5809 30.3867 42.5959 27.1122 42.5959C23.8378 42.5959 20.8519 41.5809 18.2742 39.8499ZM37.9143 38.2488V33.6946C37.9061 30.54 35.349 27.9857 32.1939 27.9819C31.8818 27.9819 31.5878 28.131 31.4027 28.3828C30.3996 29.7484 28.8068 30.5553 27.1122 30.5553C25.4177 30.5553 23.8243 29.7484 22.8212 28.3828C22.6366 28.131 22.3427 27.9819 22.0305 27.9819C18.8759 27.9857 16.3183 30.54 16.3102 33.6946V38.2488C13.2462 35.3086 11.5128 31.2463 11.5104 26.9999C11.5104 18.4001 18.5096 11.4038 27.1093 11.4038C35.7091 11.4038 42.7121 18.4006 42.7121 26.9999C42.7107 31.2463 40.9778 35.3086 37.9143 38.2488Z" fill="white"/>
<path d="M50.947 29.7546C51.1844 27.5652 51.1269 25.3537 50.7768 23.1792L53.4946 20.5727C53.7919 20.2879 53.8796 19.8477 53.7147 19.4703L50.6205 12.3973C50.4536 12.0156 50.0643 11.7807 49.6486 11.8119L45.8865 12.0885C44.5324 10.346 42.9256 8.81549 41.1193 7.5477L41.2296 3.78942C41.2421 3.37322 40.9903 2.99442 40.6019 2.84433L33.4028 0.0656594C33.0158 -0.0834635 32.5766 0.0263409 32.3057 0.34041L29.868 3.1656C27.6781 2.92872 25.4662 2.98578 23.2917 3.33582L20.6852 0.618038C20.4003 0.320751 19.9602 0.233003 19.5828 0.39795L12.5102 3.49309C12.1286 3.65995 11.8936 4.0493 11.9243 4.46455L12.201 8.22715C10.4585 9.58124 8.92793 11.188 7.66014 12.9938L3.90186 12.8835C3.48518 12.8696 3.1059 13.1218 2.95678 13.5117L0.178583 20.7103C0.0289801 21.0973 0.138784 21.536 0.452854 21.8074L3.27852 24.2452C3.04117 26.4345 3.09823 28.646 3.44874 30.8205L0.730481 33.427C0.433194 33.7118 0.345447 34.152 0.510873 34.5294L3.60553 41.6019C3.7724 41.9836 4.16175 42.2185 4.57747 42.1879L8.33959 41.9112C9.69368 43.6537 11.3005 45.1842 13.1062 46.452L12.996 50.2103C12.9835 50.6265 13.2352 51.0053 13.6241 51.1554L20.8232 53.9341C21.2102 54.0837 21.6494 53.9739 21.9203 53.6593L24.3576 50.8336C26.547 51.071 28.7584 51.0139 30.9329 50.6639L33.5395 53.3817C33.8248 53.679 34.2645 53.7667 34.6418 53.6018L41.7148 50.5071C42.096 50.3402 42.331 49.9509 42.3003 49.5356L42.0236 45.7735C43.7661 44.419 45.2967 42.8122 46.5645 41.0059L50.3227 41.1162C50.7389 41.1282 51.1177 40.8764 51.2678 40.4881L54.0465 33.2889C54.1956 32.902 54.0858 32.4632 53.7718 32.1918L50.947 29.7546ZM49.6855 39.1325L46.0864 39.0266C45.7474 39.016 45.4276 39.1814 45.2401 39.4639C43.9397 41.4168 42.3089 43.1291 40.4216 44.5235C40.1507 44.7239 40.0011 45.049 40.0261 45.3851L40.2907 48.9861L34.4826 51.527L31.9892 48.9272C31.761 48.6893 31.4287 48.5819 31.1041 48.6414C28.7867 49.0653 26.418 49.1266 24.0819 48.8226C23.7544 48.78 23.4274 48.9046 23.2116 49.1549L20.8851 51.8521L14.9796 49.5735L15.0851 45.974C15.0952 45.6359 14.9302 45.3161 14.6488 45.1281C12.6953 43.8273 10.983 42.197 9.58867 40.3097C9.38824 40.0388 9.06315 39.8896 8.72702 39.9141L5.12601 40.1788L2.58517 34.3707L5.18451 31.8773C5.42282 31.649 5.53023 31.3167 5.47077 30.9921C5.04642 28.6747 4.98552 26.306 5.28952 23.9699C5.3322 23.6424 5.20705 23.3154 4.95723 23.0996L2.25959 20.7722L4.53863 14.8667L8.1382 14.9727C8.47624 14.9823 8.79607 14.8173 8.98403 14.5354C10.2849 12.5824 11.9152 10.8706 13.803 9.47575C14.0739 9.2758 14.223 8.95022 14.1981 8.61458L13.9334 5.01309L19.7415 2.47224L22.2349 5.07207C22.4631 5.3099 22.7959 5.4173 23.12 5.35833C25.4379 4.93349 27.8076 4.87212 30.1441 5.1766C30.4716 5.21927 30.7987 5.09412 31.0144 4.84431L33.3414 2.14715L39.2464 4.42619L39.1404 8.02528C39.1304 8.3638 39.2953 8.68362 39.5773 8.87159C41.5302 10.172 43.2425 11.8027 44.6369 13.69C44.8373 13.9609 45.1624 14.1101 45.4985 14.0856L49.0995 13.8209L51.6409 19.6291L49.041 22.1224C48.8032 22.3507 48.6953 22.683 48.7548 23.0076C49.1791 25.325 49.2405 27.6937 48.9365 30.0298C48.8938 30.3573 49.0185 30.6838 49.2688 30.8996L51.965 33.2271L49.6855 39.1325Z" fill="white"/>
<path d="M27.1121 15.351C23.6674 15.351 20.8748 18.1431 20.8748 21.5878C20.8748 25.033 23.6674 27.8251 27.1121 27.8251C30.5568 27.8251 33.3494 25.0325 33.3494 21.5878C33.3455 18.145 30.5553 15.3548 27.1121 15.351ZM27.1121 25.8611C24.752 25.8611 22.8388 23.9479 22.8388 21.5878C22.8388 19.2277 24.752 17.3145 27.1121 17.3145C29.4722 17.3145 31.3853 19.2277 31.3853 21.5878C31.3825 23.9469 29.4712 25.8582 27.1121 25.8611Z" fill="white"/>
</g>
<defs>
<clipPath id="clip0">
<rect width="54" height="54" fill="white"/>
</clipPath>
</defs>
</svg>
