<svg width="54" height="54" viewBox="0 0 54 54" fill="none" xmlns="http://www.w3.org/2000/svg">
<g clip-path="url(#clip0)">
<path d="M14.4282 36.2238H13.8413C15.0793 35.1035 15.8585 33.485 15.8585 31.6878C15.8585 28.3143 13.114 25.5698 9.74046 25.5698C6.36694 25.5698 3.62243 28.3143 3.62243 31.6878C3.62243 33.485 4.40163 35.1035 5.63963 36.2238H5.05269C2.26652 36.2238 0 38.4904 0 41.2765V45.9643C0 46.4011 0.354059 46.7553 0.791016 46.7553H18.6898C19.1268 46.7553 19.4808 46.4011 19.4808 45.9643V41.2765C19.4808 38.4904 17.2143 36.2238 14.4282 36.2238ZM5.20446 31.6878C5.20446 29.1866 7.23927 27.1518 9.74046 27.1518C12.2417 27.1518 14.2765 29.1866 14.2765 31.6878C14.2765 34.1889 12.2417 36.2238 9.74046 36.2238C7.23927 36.2238 5.20446 34.189 5.20446 31.6878ZM17.8988 45.1732H15.0061V43.8334C15.0061 43.3965 14.652 43.0424 14.2151 43.0424C13.7781 43.0424 13.4241 43.3965 13.4241 43.8334V45.1732H6.05675V43.8334C6.05675 43.3965 5.70269 43.0424 5.26574 43.0424C4.82878 43.0424 4.47472 43.3965 4.47472 43.8334V45.1732H1.58203V41.2765C1.58203 39.3628 3.13896 37.8058 5.05259 37.8058H14.4282C16.342 37.8058 17.8988 39.3628 17.8988 41.2765V45.1732Z" fill="white"/>
<path d="M48.9469 42.8298H48.3598C49.5981 41.7095 50.3775 40.0908 50.3775 38.2933C50.3775 34.9198 47.633 32.1753 44.2595 32.1753C40.8859 32.1753 38.1414 34.9198 38.1414 38.2933C38.1414 40.0908 38.9208 41.7094 40.1591 42.8298H39.5717C36.7854 42.8298 34.5187 45.0961 34.5187 47.8818V52.5699C34.5187 53.0067 34.8727 53.3609 35.3097 53.3609H42.4141C42.851 53.3609 43.2051 53.0067 43.2051 52.5699C43.2051 52.133 42.851 51.7789 42.4141 51.7789H40.5759V50.439C40.5759 50.0021 40.2218 49.648 39.7848 49.648C39.3479 49.648 38.9938 50.0021 38.9938 50.439V51.7789H36.1008V47.8818C36.1008 45.9685 37.658 44.4119 39.5718 44.4119H48.9469C50.8607 44.4119 52.4179 45.9685 52.4179 47.8818V51.7789H49.5252V50.439C49.5252 50.0021 49.1711 49.648 48.7342 49.648C48.2972 49.648 47.9432 50.0021 47.9432 50.439V51.7789H46.1056C45.6686 51.7789 45.3146 52.133 45.3146 52.5699C45.3146 53.0067 45.6686 53.3609 46.1056 53.3609H53.2089C53.6459 53.3609 53.9999 53.0067 53.9999 52.5699V47.8818C53.9999 45.0961 51.7332 42.8298 48.9469 42.8298ZM39.7236 38.2933C39.7236 35.7922 41.7584 33.7573 44.2596 33.7573C46.7608 33.7573 48.7956 35.7921 48.7956 38.2933C48.7956 40.7945 46.7608 42.8293 44.2596 42.8293C41.7584 42.8293 39.7236 40.7945 39.7236 38.2933Z" fill="white"/>
<path d="M51.0785 7.24465H41.7867C41.3498 7.24465 40.9957 7.59882 40.9957 8.03567C40.9957 8.47252 41.3498 8.82669 41.7867 8.82669H51.0785C51.8171 8.82669 52.418 9.42754 52.418 10.1661V27.2131C52.418 27.9517 51.8171 28.5525 51.0785 28.5525H35.949C35.5121 28.5525 35.158 28.9067 35.158 29.3435V31.6955L32.2475 28.7842C32.0992 28.6358 31.898 28.5525 31.6881 28.5525H25.5087C24.7694 28.5525 24.1682 27.9517 24.1682 27.2131V10.1661C24.1682 9.42754 24.7694 8.82669 25.5087 8.82669H38.0953C38.5323 8.82669 38.8863 8.47252 38.8863 8.03567C38.8863 7.59882 38.5323 7.24465 38.0953 7.24465H31.4139V3.56063C31.4139 1.94981 30.1028 0.639145 28.4913 0.639145H2.92148C1.31066 0.639145 0 1.9497 0 3.56063V20.6075C0 22.2185 1.31066 23.529 2.92148 23.529H7.35855C7.79551 23.529 8.14957 23.1749 8.14957 22.738C8.14957 22.3012 7.79551 21.947 7.35855 21.947H2.92148C2.18289 21.947 1.58203 21.3461 1.58203 20.6075V3.56063C1.58203 2.82214 2.18289 2.22118 2.92148 2.22118H28.4913C29.2306 2.22118 29.8318 2.82203 29.8318 3.56063V7.24465H25.5087C23.8972 7.24465 22.5861 8.55521 22.5861 10.1661V21.947H22.3118C22.102 21.947 21.9008 22.0304 21.7524 22.1787L18.842 25.09V22.738C18.842 22.3012 18.4879 21.947 18.051 21.947H11.05C10.613 21.947 10.2589 22.3012 10.2589 22.738C10.2589 23.1749 10.613 23.529 11.05 23.529H17.2601V27C17.2601 27.32 17.4528 27.6085 17.7484 27.7308C17.8464 27.7713 17.949 27.791 18.0509 27.791C18.2567 27.791 18.4591 27.7107 18.6105 27.5593L22.5862 23.5825V27.2131C22.5862 28.824 23.8973 30.1345 25.5088 30.1345H31.3604L35.3896 34.1647C35.541 34.3161 35.7434 34.3965 35.9492 34.3964C36.0511 34.3964 36.1538 34.3767 36.2517 34.3362C36.5473 34.2138 36.74 33.9253 36.74 33.6054V30.1344H51.0785C52.6893 30.1344 54 28.8239 54 27.213V10.1661C54 8.55521 52.6893 7.24465 51.0785 7.24465Z" fill="white"/>
</g>
<defs>
<clipPath id="clip0">
<rect width="54" height="54" fill="white"/>
</clipPath>
</defs>
</svg>
