<svg width="54" height="54" viewBox="0 0 54 54" fill="none" xmlns="http://www.w3.org/2000/svg">
<path d="M50.4128 13.1192C49.5026 10.0261 47.6148 7.31119 45.0323 5.38093C39.9549 1.39827 35.208 -0.252713 29.6551 0.0310997C26.7269 0.233281 23.8174 0.648927 20.9497 1.27477C16.8892 2.09214 13.9405 3.51943 11.933 5.63848C10.3412 7.33355 9.11253 9.33606 8.32248 11.523C7.98878 12.4814 7.71699 13.4601 7.50859 14.4532L7.43297 14.7789C7.24386 15.4787 6.98842 16.1588 6.67012 16.81C6.48292 17.2274 6.29666 17.6454 6.13667 18.0703C5.92879 18.5465 5.84537 19.0677 5.89409 19.5851C6.07676 20.3895 6.54282 21.1013 7.20716 21.5902C7.64833 21.9945 7.93837 22.2784 7.941 22.5368C7.90609 22.6713 7.85315 22.8005 7.78365 22.9209C6.70577 25.1929 5.385 27.3413 3.84444 29.3289C3.19846 30.1176 2.52083 31.0379 2.65794 31.9747C2.854 32.6844 3.32291 33.2878 3.96225 33.653C4.25977 33.8598 4.57364 34.042 4.90091 34.1975C5.28935 34.3953 5.93976 34.7271 5.98459 34.964C6.04386 35.2679 6.00948 35.5826 5.88608 35.8666C5.75245 36.1483 5.61366 36.3917 5.49406 36.603C5.16363 37.1875 4.60992 38.1658 5.4448 38.8657C5.63907 39.0375 5.9713 39.2987 6.27536 39.531C6.05019 39.9265 5.94915 40.3807 5.98532 40.8344C6.03394 41.1866 6.22568 41.5031 6.5153 41.7094C6.71653 41.8522 6.93189 41.9765 7.14546 42.0987C7.67459 42.4003 7.8811 42.5409 7.95229 42.8216C7.99954 43.1881 7.96632 43.5605 7.85473 43.9128C7.80284 44.1487 7.7519 44.3847 7.72026 44.6202C7.62987 45.4388 7.73313 46.2672 8.02179 47.0385C8.4888 48.7474 10.2111 49.7925 11.9425 49.4176C14.5125 48.7979 17.0471 48.0399 19.5352 47.147C21.5584 48.3419 22.8364 51.9581 23.1694 53.3142C23.2688 53.7165 23.6296 53.9994 24.044 53.9998H46.7985C47.0838 53.9997 47.3522 53.8644 47.5219 53.635C47.6916 53.4056 47.7425 53.1093 47.659 52.8366C47.4187 52.2023 47.0764 51.6115 46.6456 51.0876C46.4017 50.7766 46.1847 50.4453 45.997 50.0975C45.5915 49.2671 45.2515 48.4064 44.9801 47.5232C44.4655 45.7851 44.1105 44.0037 43.9193 42.2011C43.6011 39.5098 44.0073 36.7824 45.0961 34.3008C45.7623 32.9273 46.5819 31.6336 47.5394 30.4446C48.0834 29.7129 48.6451 28.9562 49.1513 28.1582C50.5719 25.9513 51.3358 23.386 51.3538 20.7614C51.4079 18.1821 51.0909 15.6084 50.4128 13.1192ZM49.5541 20.736C49.5389 23.0281 48.8716 25.2686 47.6301 27.1955C47.16 27.9364 46.6186 28.6659 46.0947 29.3717C45.0555 30.6698 44.167 32.0819 43.4467 33.5807C42.2294 36.3567 41.7756 39.4074 42.1327 42.4176C42.3363 44.327 42.7138 46.2139 43.2603 48.0548C43.5587 49.0248 43.9318 49.9701 44.3765 50.8822C44.6102 51.3285 44.8835 51.7529 45.193 52.1504C45.2053 52.1666 45.2176 52.1834 45.229 52.2001H24.7254C24.126 50.064 23.04 48.0959 21.5526 46.4499C21.7881 46.3677 22.0114 46.2895 22.2188 46.2165C22.8929 45.9806 23.4009 45.8021 23.6567 45.7216C27.515 44.5106 29.445 42.7572 29.3923 40.5098C29.3807 40.0127 28.9682 39.6192 28.4713 39.6309C27.9743 39.6426 27.5807 40.055 27.5924 40.552C27.6143 41.4792 26.8559 42.8309 23.1162 44.0047C22.8507 44.0887 22.3225 44.2728 21.6238 44.5181C20.9787 44.744 20.1842 45.0221 19.3149 45.3192L19.3096 45.321C16.7763 46.2377 14.1953 47.017 11.578 47.6553C10.735 47.8189 9.91419 47.285 9.72182 46.4481C9.52702 45.9426 9.45267 45.3987 9.50477 44.8594C9.52934 44.6732 9.57153 44.4868 9.61287 44.3005C9.79744 43.6761 9.82613 43.016 9.6964 42.3779C9.43853 41.5514 8.83283 40.8785 8.03793 40.5353C7.9738 40.4988 7.90873 40.4619 7.84545 40.4245C7.94153 40.2277 8.05691 40.0409 8.19001 39.8669C8.34009 39.6757 8.40633 39.432 8.37374 39.1911C8.34115 38.9503 8.21237 38.7329 8.01694 38.5885C7.80073 38.4289 7.28658 38.0435 6.9166 37.7482C6.96227 37.6643 7.01416 37.5724 7.06162 37.4894C7.19957 37.245 7.35777 36.9634 7.51165 36.6404C7.79968 36.0108 7.88416 35.3071 7.75338 34.6272C7.54329 33.5238 6.48861 32.9864 5.7187 32.5935C5.45778 32.47 5.20761 32.3251 4.97073 32.1602C4.78374 32.0304 4.60655 31.8869 4.44076 31.7309C4.44339 31.5956 4.58398 31.2664 5.27658 30.4213C6.88507 28.3479 8.26384 26.1062 9.38896 23.7355C9.60559 23.3642 9.72667 22.9448 9.74144 22.5151C9.64989 21.6084 9.16875 20.7864 8.42309 20.2626C8.05923 19.9295 7.71562 19.6148 7.67691 19.3389C7.68029 19.1203 7.72944 18.9047 7.82109 18.7061C7.96874 18.3136 8.14192 17.9296 8.3133 17.5451C8.68033 16.7894 8.97268 15.9996 9.18604 15.187L9.26251 14.8587C9.45393 13.9397 9.70399 13.034 10.0113 12.1469C10.7174 10.1885 11.8159 8.39497 13.2395 6.87614C14.9832 5.03573 17.6216 3.78067 21.3051 3.03934C24.0863 2.43164 26.9079 2.02686 29.7477 1.82826C34.8418 1.57208 39.2116 3.10136 43.9235 6.79799C46.2129 8.48673 47.8845 10.8803 48.6819 13.6112C49.3117 15.9322 49.6056 18.3316 49.5541 20.736Z" fill="white"/>
<path d="M45.7142 14.5556H43.8482C43.641 13.8514 43.359 13.1714 43.0071 12.5272L44.3273 11.207C44.6358 10.8986 44.6788 10.4135 44.4293 10.0556C43.564 8.81419 42.4856 7.73589 41.2442 6.87053C40.8867 6.62016 40.4009 6.66298 40.0928 6.97199L38.7726 8.29213C38.1281 7.94018 37.4478 7.65816 36.7432 7.45103V5.58478C36.743 5.14889 36.4305 4.77574 36.0015 4.69886C34.5112 4.43603 32.9865 4.43603 31.4962 4.69886C31.0671 4.77574 30.7547 5.14889 30.7545 5.58478V7.45113C30.05 7.65827 29.3696 7.94029 28.7251 8.29223L27.4049 6.9721C27.0968 6.66308 26.6111 6.62026 26.2536 6.87064C25.0121 7.73589 23.9337 8.8143 23.0684 10.0558C22.8189 10.4135 22.8618 10.8988 23.1704 11.2071L24.4906 12.5273C24.1387 13.1715 23.8567 13.8515 23.6495 14.5557H21.7836C21.3476 14.5556 20.9743 14.8682 20.8977 15.2975C20.6329 16.7878 20.6329 18.3132 20.8977 19.8036C20.9743 20.2328 21.3476 20.5454 21.7836 20.5453H23.6496C23.8568 21.2495 24.1388 21.9296 24.4907 22.5738L23.1705 23.8939C22.862 24.2023 22.819 24.6874 23.0686 25.0453C23.9338 26.2867 25.0122 27.3652 26.2537 28.2304C26.6115 28.4795 27.0963 28.4368 27.4051 28.1289L28.7252 26.8088C29.3697 27.1608 30.0501 27.4428 30.7546 27.6499V29.5163C30.7548 29.9522 31.0673 30.3253 31.4963 30.4022C32.9865 30.6665 34.5114 30.6665 36.0016 30.4022C36.4307 30.3253 36.7431 29.9522 36.7433 29.5163V27.6499C37.4479 27.4428 38.1282 27.1608 38.7727 26.8088L40.0929 28.1289C40.4015 28.4369 40.8864 28.4797 41.2443 28.2304C42.4857 27.3652 43.5641 26.2867 44.4294 25.0453C44.6789 24.6875 44.636 24.2023 44.3274 23.8939L43.0073 22.5738C43.3591 21.9295 43.6411 21.2495 43.8484 20.5453H45.7143C46.1503 20.5454 46.5236 20.2328 46.6002 19.8036C46.865 18.3132 46.865 16.7878 46.6002 15.2975C46.5235 14.8682 46.1502 14.5556 45.7142 14.5556ZM44.9347 18.7454H43.1504C42.7278 18.7453 42.3621 19.0394 42.2715 19.452C42.0557 20.439 41.6658 21.3796 41.1201 22.2298C40.8907 22.5857 40.9408 23.0535 41.2406 23.3526L42.5035 24.6156C42.0032 25.2382 41.4367 25.8046 40.8143 26.3049L39.5513 25.0423C39.2522 24.7431 38.7851 24.6926 38.4289 24.9211C37.5784 25.4674 36.6373 25.8575 35.6499 26.0733C35.2372 26.1641 34.9432 26.5296 34.9432 26.9521V28.7363C34.1493 28.8216 33.3483 28.8216 32.5544 28.7363V26.9521C32.5544 26.5296 32.2604 26.164 31.8478 26.0733C30.8603 25.8575 29.9192 25.4674 29.0687 24.9211C28.7128 24.6917 28.245 24.7423 27.9463 25.0423L26.6833 26.3049C26.0608 25.8046 25.4944 25.2381 24.9941 24.6156L26.257 23.3526C26.5567 23.0535 26.6069 22.5858 26.3775 22.2298C25.8318 21.3797 25.4419 20.439 25.2261 19.452C25.1355 19.0394 24.7697 18.7453 24.3472 18.7454H22.5632C22.4776 17.9511 22.4776 17.15 22.5632 16.3557H24.3473C24.77 16.3558 25.1356 16.0618 25.2262 15.6491C25.442 14.6621 25.8319 13.7216 26.3776 12.8713C26.607 12.5155 26.5569 12.0477 26.2571 11.7485L24.9942 10.4855C25.4945 9.86296 26.061 9.2966 26.6834 8.79626L27.9464 10.0588C28.2451 10.3588 28.7128 10.4094 29.0688 10.1801C29.9193 9.63378 30.8604 9.24365 31.8479 9.02787C32.2606 8.93706 32.5545 8.57151 32.5545 8.14901V6.36482C33.3485 6.2796 34.1494 6.2796 34.9433 6.36482V8.14901C34.9433 8.57151 35.2373 8.93717 35.65 9.02787C36.6374 9.24365 37.5785 9.63378 38.429 10.1801C38.7852 10.4084 39.2522 10.3579 39.5514 10.0588L40.8144 8.79626C41.4369 9.2966 42.0033 9.86306 42.5036 10.4855L41.2407 11.7485C40.941 12.0476 40.8908 12.5154 41.1202 12.8713C41.6659 13.7215 42.0558 14.6621 42.2716 15.6491C42.3622 16.0618 42.728 16.3558 43.1505 16.3557H44.9347C45.0202 17.1499 45.0202 17.9511 44.9347 18.7454Z" fill="white"/>
<path d="M21.5991 26.1004H20.5712C20.4874 25.7782 20.3587 25.4694 20.1889 25.1831L20.917 24.4547C21.2684 24.1033 21.2684 23.5336 20.917 23.182C20.5656 22.8306 19.9959 22.8306 19.6444 23.182L18.9161 23.9104C18.6298 23.7408 18.3211 23.6121 17.9991 23.5282V22.5004C17.9991 22.0033 17.5961 21.6004 17.0991 21.6004C16.6022 21.6004 16.1992 22.0034 16.1992 22.5004V23.5282C15.8771 23.6121 15.5684 23.7408 15.2821 23.9104L14.554 23.182C14.3267 22.9546 13.9953 22.866 13.6847 22.9492C13.3741 23.0324 13.1316 23.275 13.0484 23.5854C12.9652 23.8959 13.054 24.2273 13.2813 24.4547L14.0094 25.1831C13.8396 25.4694 13.711 25.7782 13.6271 26.1004H12.5992C12.1022 26.1004 11.6993 26.5033 11.6993 27.0004C11.6993 27.4974 12.1022 27.9003 12.5992 27.9003H13.6271C13.711 28.2225 13.8396 28.5313 14.0094 28.8177L13.2813 29.546C13.054 29.7734 12.9652 30.1047 13.0484 30.4153C13.1316 30.7258 13.3742 30.9684 13.6847 31.0516C13.9952 31.1348 14.3266 31.046 14.554 30.8187L15.2821 30.0904C15.5685 30.2599 15.8772 30.3886 16.1993 30.4726V31.5004C16.1993 31.9974 16.6022 32.4003 17.0992 32.4003C17.5963 32.4003 17.9992 31.9974 17.9992 31.5004V30.4726C18.3213 30.3886 18.63 30.2599 18.9162 30.0904L19.6444 30.8187C19.9958 31.1701 20.5655 31.1701 20.917 30.8187C21.2684 30.4673 21.2684 29.8975 20.917 29.546L20.1889 28.8177C20.3587 28.5313 20.4874 28.2225 20.5712 27.9003H21.5991C22.0962 27.9003 22.499 27.4974 22.499 27.0004C22.499 26.5033 22.0962 26.1004 21.5991 26.1004ZM17.0991 28.8004C16.105 28.8004 15.2991 27.9945 15.2991 27.0004C15.2991 26.0062 16.105 25.2004 17.0991 25.2004C18.0932 25.2004 18.8991 26.0062 18.8991 27.0004C18.898 27.994 18.0927 28.7992 17.0991 28.8004Z" fill="white"/>
<path d="M12.388 17.1006C12.4435 17.2811 12.516 17.4561 12.6043 17.623L12.1176 18.11C11.8903 18.3374 11.8015 18.6686 11.8847 18.9792C11.968 19.2897 12.2105 19.5323 12.521 19.6155C12.8315 19.6987 13.1629 19.6099 13.3903 19.3827L13.8784 18.8943C14.0449 18.9823 14.2193 19.0545 14.3992 19.1101V19.8006C14.3992 20.2977 14.8021 20.7006 15.2991 20.7006C15.7962 20.7006 16.1991 20.2977 16.1991 19.8006V19.1101C16.379 19.0547 16.5534 18.9824 16.7199 18.8943L17.2081 19.3828C17.5595 19.7342 18.1293 19.7342 18.4808 19.3828C18.8322 19.0313 18.8322 18.4615 18.4808 18.1101L17.9939 17.623C18.0824 17.4561 18.1549 17.2812 18.2103 17.1007H18.899C19.3961 17.1007 19.799 16.6977 19.799 16.2007C19.799 15.7036 19.3961 15.3008 18.899 15.3008H18.2103C18.1549 15.1202 18.0824 14.9453 17.9939 14.7784L18.4808 14.2913C18.7082 14.0639 18.7969 13.7327 18.7136 13.4221C18.6304 13.1116 18.3878 12.869 18.0774 12.7858C17.7669 12.7026 17.4355 12.7914 17.2081 13.0187L16.7199 13.5071C16.5534 13.4191 16.379 13.347 16.1991 13.2915V12.6008C16.1991 12.1037 15.7962 11.7008 15.2991 11.7008C14.8021 11.7008 14.3992 12.1037 14.3992 12.6008V13.2916C14.2193 13.3471 14.0449 13.4192 13.8784 13.5072L13.3902 13.0187C13.0388 12.6672 12.469 12.6672 12.1175 13.0187C11.7661 13.3701 11.7661 13.9398 12.1175 14.2913L12.6043 14.7784C12.5159 14.9453 12.4434 15.1202 12.3879 15.3008H11.6992C11.2022 15.3008 10.7993 15.7037 10.7993 16.2007C10.7993 16.6978 11.2023 17.1007 11.6992 17.1007H12.388V17.1006ZM14.9728 14.9828C15.5238 14.835 16.1054 15.0758 16.3907 15.5698C16.676 16.0638 16.594 16.6879 16.1905 17.0913C15.8303 17.4519 15.2881 17.5599 14.817 17.3649C14.346 17.1698 14.0389 16.7102 14.0389 16.2005C14.0388 15.63 14.4219 15.1305 14.9728 14.9828Z" fill="white"/>
<path d="M33.749 11.7006C30.5183 11.7006 27.8991 14.3197 27.8991 17.5506C27.9028 20.7799 30.5197 23.3968 33.749 23.4006C36.9798 23.4006 39.599 20.7815 39.599 17.5506C39.599 14.3197 36.9798 11.7006 33.749 11.7006ZM33.749 21.6004C31.5123 21.6004 29.6991 19.7872 29.6991 17.5505C29.7015 15.3148 31.5133 13.503 33.749 13.5005C35.9858 13.5005 37.799 15.3137 37.799 17.5505C37.799 19.7872 35.9858 21.6004 33.749 21.6004Z" fill="white"/>
</svg>
