<svg width="54" height="54" viewBox="0 0 54 54" fill="none" xmlns="http://www.w3.org/2000/svg">
<g clip-path="url(#clip0)">
<path d="M27.0001 5.39994C27.4971 5.39994 27.9001 4.99697 27.9001 4.49995V0.899991C27.9001 0.402971 27.4971 0 27.0001 0C26.5031 0 26.1001 0.402971 26.1001 0.899991V4.49995C26.1001 4.99697 26.503 5.39994 27.0001 5.39994Z" fill="white"/>
<path d="M15.8708 4.12377L17.6708 7.24044C17.9165 7.67254 18.4659 7.82363 18.898 7.57793C19.3302 7.33224 19.4812 6.78279 19.2355 6.35068C19.2336 6.3472 19.2316 6.34382 19.2296 6.34033L17.4296 3.22367C17.1839 2.79156 16.6345 2.64047 16.2024 2.88617C15.7702 3.13187 15.6192 3.68131 15.8649 4.11342C15.8668 4.11691 15.8688 4.12039 15.8708 4.12377Z" fill="white"/>
<path d="M8.6137 12.0233C8.61707 12.0253 8.62056 12.0273 8.62405 12.0293L11.7407 13.8293C12.1696 14.0806 12.7209 13.9368 12.9722 13.508C13.2236 13.0791 13.0798 12.5278 12.6509 12.2764C12.6476 12.2744 12.6441 12.2725 12.6406 12.2705L9.52392 10.4705C9.09508 10.2192 8.54372 10.363 8.2924 10.7918C8.04108 11.2205 8.18485 11.772 8.6137 12.0233Z" fill="white"/>
<path d="M10.8002 21.5998C10.8002 21.1027 10.3972 20.6998 9.90019 20.6998H6.30023C5.80321 20.6998 5.40024 21.1027 5.40024 21.5998C5.40024 22.0968 5.80321 22.4998 6.30023 22.4998H9.90019C10.3972 22.4998 10.8002 22.0968 10.8002 21.5998Z" fill="white"/>
<path d="M11.7512 29.3642C11.7477 29.3662 11.7442 29.3683 11.7407 29.3703L8.62404 31.1703C8.19193 31.4158 8.04073 31.9653 8.28632 32.3974C8.5319 32.8295 9.08135 32.9807 9.51346 32.7351C9.51694 32.7331 9.52043 32.7311 9.52392 32.729L12.6406 30.9291C13.0727 30.6835 13.2239 30.134 12.9783 29.7019C12.7327 29.2698 12.1833 29.1186 11.7512 29.3642Z" fill="white"/>
<path d="M45.3865 31.1764C45.383 31.1743 45.3795 31.1723 45.376 31.1703L42.2594 29.3703C41.8306 29.1189 41.2792 29.2626 41.0277 29.6914C40.7763 30.1201 40.9201 30.6716 41.3488 30.923C41.3523 30.925 41.3558 30.9271 41.3593 30.9291L44.4759 32.7291C44.9047 32.9805 45.4561 32.8367 45.7076 32.408C45.959 31.9792 45.8152 31.4278 45.3865 31.1764Z" fill="white"/>
<path d="M47.6999 20.6998H44.0999C43.6029 20.6998 43.2 21.1027 43.2 21.5998C43.2 22.0968 43.6029 22.4998 44.0999 22.4998H47.6999C48.1969 22.4998 48.5999 22.0968 48.5999 21.5998C48.5999 21.1027 48.1969 20.6998 47.6999 20.6998Z" fill="white"/>
<path d="M41.8103 13.9499C41.9683 13.9499 42.1235 13.9082 42.2603 13.8293L45.377 12.0293C45.8091 11.7836 45.9602 11.2341 45.7145 10.802C45.4688 10.3699 44.9193 10.2188 44.4872 10.4645C44.4837 10.4665 44.4804 10.4685 44.4769 10.4705L41.3602 12.2705C40.9298 12.519 40.7823 13.0694 41.0308 13.4999C41.1917 13.7783 41.4888 13.9499 41.8103 13.9499Z" fill="white"/>
<path d="M35.0988 7.57019C35.0992 7.57042 35.0995 7.57064 35.0998 7.57075C35.5304 7.81904 36.0808 7.67133 36.3291 7.24068C36.3291 7.24057 36.3292 7.24046 36.3292 7.24046L38.1292 4.12379C38.3807 3.69506 38.2369 3.14359 37.8081 2.89215C37.3794 2.64072 36.8279 2.78449 36.5765 3.21323C36.5745 3.21671 36.5725 3.2202 36.5704 3.22369L34.7704 6.34036C34.5216 6.77066 34.6686 7.32123 35.0988 7.57019Z" fill="white"/>
<path d="M28.7999 35.9996C29.2969 35.9996 29.6999 35.5967 29.6999 35.0996V25.1997H31.4999C33.4881 25.1997 35.0998 23.588 35.0998 21.5998C35.0998 19.6116 33.4881 17.9998 31.4999 17.9998C29.5117 17.9998 27.8999 19.6116 27.8999 21.5998V23.3998H26.0999V21.5998C26.0999 19.6116 24.4882 17.9998 22.5 17.9998C20.5118 17.9998 18.9 19.6116 18.9 21.5998C18.9 23.588 20.5118 25.1997 22.5 25.1997H24.2999V35.0996C24.2999 35.5967 24.7029 35.9996 25.1999 35.9996C25.697 35.9996 26.0999 35.5967 26.0999 35.0996V25.1997H27.8999V35.0996C27.8999 35.5967 28.3028 35.9996 28.7999 35.9996ZM29.6999 21.5998C29.6999 20.6056 30.5057 19.7998 31.4999 19.7998C32.494 19.7998 33.2999 20.6056 33.2999 21.5998C33.2999 22.5939 32.494 23.3998 31.4999 23.3998H29.6999V21.5998ZM24.2999 23.3998H22.5C21.5058 23.3998 20.7 22.5939 20.7 21.5998C20.7 20.6056 21.5058 19.7998 22.5 19.7998C23.4941 19.7998 24.2999 20.6056 24.2999 21.5998V23.3998Z" fill="white"/>
<path d="M27.6993 7.21703C19.7557 6.83543 13.0066 12.9656 12.6251 20.9093C12.4065 25.4578 14.3524 29.8417 17.8723 32.7309C18.5067 33.2278 18.8842 33.9835 18.9001 34.7891V36.8996C18.9049 38.0397 19.6252 39.054 20.7001 39.434V40.4996C20.7025 41.1659 20.9527 41.8076 21.4021 42.2996C20.4661 43.317 20.4661 44.8821 21.4021 45.8995C20.4015 46.9964 20.4796 48.6967 21.5765 49.6973C22.0747 50.1517 22.7257 50.4024 23.4001 50.3995C23.8845 50.4122 24.2876 50.0297 24.3002 49.5453C24.3051 49.3563 24.2489 49.1706 24.1399 49.0162C24.1114 48.9612 24.0777 48.909 24.0391 48.8605C23.965 48.7928 23.8806 48.7374 23.7889 48.6967C23.7628 48.6832 23.7367 48.6724 23.7097 48.6616C23.6186 48.6284 23.523 48.6093 23.4262 48.6049C23.4172 48.6049 23.4091 48.5995 23.4001 48.5995C22.9031 48.5995 22.5001 48.1965 22.5001 47.6995C22.5001 47.2025 22.9031 46.7995 23.4001 46.7995H27C27.4971 46.7995 27.9 46.3965 27.9 45.8995C27.9 45.4025 27.4971 44.9995 27 44.9995H23.4001C22.9031 44.9995 22.5001 44.5966 22.5001 44.0995C22.5001 43.6025 22.9031 43.1995 23.4001 43.1995H27C27.4971 43.1995 27.9 42.7966 27.9 42.2996C27.9 41.8025 27.4971 41.3996 27 41.3996H23.4001C22.9031 41.3996 22.5001 40.9966 22.5001 40.4996V39.5996H27C27.4971 39.5996 27.9 39.1966 27.9 38.6996C27.9 38.2026 27.4971 37.7996 27 37.7996H21.6001C21.1031 37.7996 20.7001 37.3966 20.7001 36.8996V34.7891C20.6854 33.4434 20.0656 32.1758 19.0126 31.3377C13.6365 26.9194 12.8602 18.9795 17.2785 13.6034C19.8059 10.5281 23.6378 8.82801 27.6138 9.01791C34.2633 9.41345 39.4865 14.863 39.5999 21.5233C39.6322 25.3541 37.9097 28.989 34.9245 31.3899C33.8793 32.2507 33.2818 33.5396 33.3 34.8935V36.8996C33.3 37.3966 32.897 37.7996 32.4 37.7996H29.7C29.203 37.7996 28.8 38.2026 28.8 38.6996C28.8 39.1966 29.203 39.5996 29.7 39.5996H31.5V40.4996C31.5 40.9966 31.097 41.3996 30.6 41.3996H29.7C29.203 41.3996 28.8 41.8025 28.8 42.2996C28.8 42.7966 29.203 43.1995 29.7 43.1995H30.6C31.097 43.1995 31.5 43.6025 31.5 44.0995C31.5 44.5966 31.097 44.9995 30.6 44.9995H29.7C29.203 44.9995 28.8 45.4025 28.8 45.8995C28.8 46.3965 29.203 46.7995 29.7 46.7995H30.6C31.097 46.7995 31.5 47.2025 31.5 47.6995C31.5 48.1965 31.097 48.5995 30.6 48.5995H26.1001C25.603 48.5995 25.2001 49.0025 25.2001 49.4995C25.2001 49.9965 25.603 50.3995 26.1001 50.3995H29.5461C29.0492 51.8054 27.5066 52.5422 26.1007 52.0453C25.6703 51.8932 25.2856 51.6344 24.9823 51.2932C24.6517 50.9219 24.0827 50.8888 23.7115 51.2194C23.3402 51.5499 23.3072 52.1189 23.6377 52.4902C25.2836 54.3449 28.1215 54.5142 29.9763 52.8684C30.7424 52.1885 31.2531 51.2673 31.4235 50.2573C32.833 49.8167 33.6185 48.317 33.178 46.9075C33.061 46.533 32.8629 46.1889 32.598 45.8995C33.534 44.8821 33.534 43.317 32.598 42.2996C33.0474 41.8076 33.2976 41.1659 33.3 40.4996V39.434C34.3749 39.054 35.0952 38.0397 35.1 36.8996V34.8935C35.0879 34.085 35.4382 33.3134 36.0548 32.7903C39.4685 30.0458 41.4379 25.8897 41.3999 21.5098C41.2698 13.8972 35.2995 7.66893 27.6993 7.21703Z" fill="white"/>
</g>
<defs>
<clipPath id="clip0">
<rect width="54" height="54" fill="white"/>
</clipPath>
</defs>
</svg>
