<svg width="54" height="54" viewBox="0 0 54 54" fill="none" xmlns="http://www.w3.org/2000/svg">
<path d="M27 0C24.0176 0 21.6 2.41763 21.6 5.4C21.6 8.38238 24.0176 10.8 27 10.8C29.9811 10.7971 32.3971 8.38114 32.4 5.4C32.4 2.41763 29.9824 0 27 0ZM27 9C25.0118 9 23.4 7.38821 23.4 5.4C23.4 3.41179 25.0118 1.8 27 1.8C28.9882 1.8 30.6 3.41179 30.6 5.4C30.6 7.38821 28.9882 9 27 9Z" fill="white"/>
<path d="M30.6 11.7H30.3876L30.1977 11.7945C28.1838 12.7972 25.8162 12.7972 23.8023 11.7945L23.6124 11.7H23.4C20.916 11.7029 18.9029 13.716 18.9 16.2V21.6C18.9 23.0912 20.1088 24.3 21.6 24.3H32.4C33.8912 24.3 35.1 23.0912 35.1 21.6V16.2C35.0971 13.716 33.084 11.7029 30.6 11.7ZM33.3 21.6C33.3 22.097 32.897 22.5 32.4 22.5H21.6C21.103 22.5 20.7 22.097 20.7 21.6V16.2C20.7002 14.7834 21.7952 13.6078 23.2083 13.5072C25.613 14.6232 28.3871 14.6232 30.7917 13.5072C32.2047 13.6078 33.2998 14.7834 33.3 16.2V21.6Z" fill="white"/>
<path d="M45.9 29.7C42.9176 29.7 40.5 32.1176 40.5 35.1C40.5 38.0824 42.9176 40.5 45.9 40.5C48.8824 40.5 51.3 38.0824 51.3 35.1C51.2971 32.1189 48.8811 29.7029 45.9 29.7ZM45.9 38.7C43.9118 38.7 42.3 37.0882 42.3 35.1C42.3 33.1118 43.9118 31.5 45.9 31.5C47.8882 31.5 49.5 33.1118 49.5 35.1C49.5 37.0882 47.8882 38.7 45.9 38.7Z" fill="white"/>
<path d="M49.5 41.4H49.2876L49.0977 41.49C47.0838 42.4926 44.7161 42.4926 42.7023 41.49L42.5124 41.4H42.3C39.816 41.4029 37.8029 43.416 37.8 45.9V51.3C37.8 52.7912 39.0088 54 40.5 54H51.3C52.7912 54 54 52.7912 54 51.3V45.9C53.9971 43.416 51.984 41.4029 49.5 41.4ZM52.2 51.3C52.2 51.797 51.797 52.2 51.3 52.2H40.5C40.003 52.2 39.6 51.797 39.6 51.3V45.9C39.6002 44.4834 40.6952 43.3078 42.1083 43.2072C44.513 44.3232 47.287 44.3232 49.6917 43.2072C51.1048 43.3078 52.1998 44.4834 52.2 45.9V51.3Z" fill="white"/>
<path d="M8.10001 29.7C5.11764 29.7 2.70001 32.1176 2.70001 35.1C2.70001 38.0824 5.11764 40.5 8.10001 40.5C11.0824 40.5 13.5 38.0824 13.5 35.1C13.4971 32.1189 11.0812 29.7029 8.10001 29.7ZM8.10001 38.7C6.1118 38.7 4.50001 37.0882 4.50001 35.1C4.50001 33.1118 6.1118 31.5 8.10001 31.5C10.0882 31.5 11.7 33.1118 11.7 35.1C11.7 37.0882 10.0882 38.7 8.10001 38.7Z" fill="white"/>
<path d="M11.7 41.4H11.4876L11.2977 41.49C9.28384 42.4926 6.91616 42.4926 4.9023 41.49L4.7124 41.4H4.5C2.016 41.4029 0.002925 43.416 0 45.9V51.3C0 52.7912 1.20881 54 2.7 54H13.5C14.9912 54 16.2 52.7912 16.2 51.3V45.9C16.1971 43.416 14.184 41.4029 11.7 41.4ZM14.4 51.3C14.4 51.797 13.997 52.2 13.5 52.2H2.7C2.20298 52.2 1.8 51.797 1.8 51.3V45.9C1.80023 44.4834 2.89519 43.3078 4.3083 43.2072C6.71299 44.3232 9.48701 44.3232 11.8917 43.2072C13.3048 43.3078 14.3998 44.4834 14.4 45.9V51.3Z" fill="white"/>
<path d="M35.9294 45.706C35.9289 45.705 35.9285 45.704 35.928 45.7029C35.7332 45.2456 35.2045 45.0328 34.7473 45.2277C30.6833 46.9309 26.1698 47.2417 21.9106 46.1115L22.753 45.864C23.2303 45.7243 23.5039 45.2243 23.3641 44.7471C23.2244 44.2699 22.7245 43.9963 22.2472 44.136L18.6472 45.1917C18.6337 45.1917 18.6238 45.207 18.6112 45.2115C18.5279 45.2425 18.4496 45.286 18.379 45.3402C18.3478 45.3571 18.3177 45.376 18.289 45.3969C18.1941 45.4816 18.1188 45.586 18.0685 45.7029C18.0197 45.8206 17.9964 45.9472 18.0001 46.0746C18.0221 46.1964 18.0521 46.3167 18.0901 46.4346C18.0955 46.4472 18.0901 46.4616 18.1 46.4742L19.9 49.9185C20.1302 50.3594 20.6741 50.5303 21.115 50.3001C21.5559 50.0699 21.7268 49.526 21.4966 49.0851L20.764 47.6847C25.6031 49.1393 30.7985 48.8566 35.4511 46.8855C35.9088 46.6919 36.123 46.1638 35.9294 45.706Z" fill="white"/>
<path d="M51.0364 23.6637C50.6849 23.3124 50.1152 23.3124 49.7638 23.6637L48.4903 24.9372C47.7451 17.0543 42.7403 10.2137 35.4529 7.1172C34.9956 6.92235 34.4669 7.13509 34.2721 7.5924C34.0772 8.04971 34.29 8.57835 34.7473 8.7732C41.2847 11.5516 45.829 17.6235 46.6516 24.6789L45.6364 23.6637C45.2789 23.3183 44.7092 23.3282 44.3638 23.6858C44.027 24.0345 44.027 24.5874 44.3638 24.9363L47.0638 27.6363C47.4148 27.9882 47.9847 27.989 48.3366 27.6379C48.3372 27.6373 48.3377 27.6368 48.3382 27.6363L51.0382 24.9363C51.3891 24.5844 51.3883 24.0147 51.0364 23.6637Z" fill="white"/>
<path d="M19.7739 7.79309C19.7709 7.74055 19.7632 7.68846 19.7505 7.63739C19.7505 7.62929 19.7406 7.62389 19.737 7.61489C19.7334 7.60589 19.737 7.59959 19.737 7.59239C19.7124 7.54862 19.6841 7.507 19.6524 7.46819C19.6232 7.41542 19.5888 7.3657 19.5498 7.31969C19.4966 7.27255 19.4376 7.23239 19.3743 7.19999C19.3427 7.1731 19.3089 7.14869 19.2735 7.12709L15.6735 5.48279C15.2137 5.29401 14.6879 5.51372 14.4991 5.97351C14.3205 6.40832 14.5067 6.90737 14.9265 7.11899L16.7904 7.97129C9.77341 11.7266 5.39491 19.0413 5.39997 27C5.39997 27.497 5.80294 27.9 6.29997 27.9C6.79699 27.9 7.19997 27.497 7.19997 27C7.19547 19.992 10.9013 13.5054 16.9407 9.95039L16.29 11.3103C16.0754 11.7577 16.2634 12.2943 16.7103 12.51C16.8317 12.5693 16.9649 12.6001 17.1 12.6C17.4456 12.5995 17.7603 12.4012 17.91 12.0897L19.71 8.33399C19.71 8.32499 19.71 8.31509 19.7172 8.30609C19.7406 8.24455 19.7569 8.18054 19.7658 8.11529C19.7812 8.0668 19.7927 8.01719 19.8 7.96679C19.7969 7.90817 19.7883 7.85001 19.7739 7.79309Z" fill="white"/>
</svg>
